# xmcd
#
# Track frame offsets:
#	150
#	17676
#	38815
#	55463
#	78472
#	104132
#	123308
#	141687
#	165791
#	184667
#	230185
#	252782
#	267417
#	281655
#	302268
#
# Disc length: 4631 seconds
#
# Revision: 0
# Processed by: cddbd v1.5.1PL0 Copyright (c) Steve Scherf et al.
# Submitted via: dBpowerAMP V4.0
#
DISCID=d412150f
DTITLE=Nobby Reed Project - Moonlight Drivin'
DYEAR=1900
DGENRE=Blues
TTITLE0=Moonlight Drivin
TTITLE1=Only One
TTITLE2=Learn to Love
TTITLE3=Morning Glory
TTITLE4=I Wish You Peace
TTITLE5=You Are
TTITLE6=Walk With Me
TTITLE7=Common Ground
TTITLE8=Blues Train
TTITLE9=Dig Deeper
TTITLE10=Blues is a Lady
TTITLE11=Powerful Thing
TTITLE12=JB
TTITLE13=Follow Your Heart
TTITLE14=Worried Man
EXTD=
EXTT0=
EXTT1=
EXTT2=
EXTT3=
EXTT4=
EXTT5=
EXTT6=
EXTT7=
EXTT8=
EXTT9=
EXTT10=
EXTT11=
EXTT12=
EXTT13=
EXTT14=
PLAYORDER=
